<svg width="260" height="53" viewBox="0 0 260 53" fill="none" xmlns="http://www.w3.org/2000/svg">
<path d="M20.12 17.4839C19.8 19.3506 19.04 20.8439 17.84 21.9639C16.64 23.0573 15.2667 23.7773 13.72 24.1239C15.1333 24.4173 16.28 25.0973 17.16 26.1639C18.04 27.2039 18.48 28.4706 18.48 29.9639C18.48 30.3639 18.44 30.7906 18.36 31.2439C17.96 33.4573 16.8667 35.2706 15.08 36.6839C13.32 38.0706 10.9867 38.7639 8.08 38.7639H0L5 10.6039H13.08C15.5333 10.6039 17.3333 11.0973 18.48 12.0839C19.6533 13.0706 20.24 14.3906 20.24 16.0439C20.24 16.5239 20.2 17.0039 20.12 17.4839ZM11 23.7239C13.3467 23.7239 15.2267 23.1773 16.64 22.0839C18.08 20.9639 18.9733 19.4306 19.32 17.4839C19.4 17.0306 19.44 16.5906 19.44 16.1639C19.44 14.6973 18.9067 13.5373 17.84 12.6839C16.7733 11.8306 15.1333 11.4039 12.92 11.4039H5.64L3.48 23.7239H11ZM17.56 31.2439C17.64 30.7906 17.68 30.3639 17.68 29.9639C17.68 28.2839 17.0533 26.9639 15.8 26.0039C14.5467 25.0173 12.7867 24.5239 10.52 24.5239H3.32L0.96 37.9639H8.24C10.8 37.9639 12.8933 37.3639 14.52 36.1639C16.1733 34.9639 17.1867 33.3239 17.56 31.2439Z" fill="white"/>
<path d="M27.5828 11.6439C27.3428 11.6439 27.1295 11.5639 26.9428 11.4039C26.7828 11.2439 26.7028 11.0439 26.7028 10.8039C26.7028 10.4039 26.8228 10.0839 27.0628 9.84392C27.3028 9.60392 27.5961 9.48392 27.9428 9.48392C28.1828 9.48392 28.3828 9.56392 28.5428 9.72392C28.7295 9.88392 28.8228 10.0973 28.8228 10.3639C28.8228 10.7373 28.6895 11.0439 28.4228 11.2839C28.1828 11.5239 27.9028 11.6439 27.5828 11.6439ZM27.0228 17.1639L23.1828 38.7639H22.3828L26.2228 17.1639H27.0228Z" fill="white"/>
<path d="M39.56 39.0439C36.8933 39.0439 34.7467 38.2839 33.12 36.7639C31.52 35.2439 30.72 33.1506 30.72 30.4839C30.72 28.0306 31.2667 25.7639 32.36 23.6839C33.4533 21.6039 34.96 19.9506 36.88 18.7239C38.8267 17.4973 41 16.8839 43.4 16.8839C46.0667 16.8839 48.2 17.6439 49.8 19.1639C51.4 20.6839 52.2 22.7773 52.2 25.4439C52.2 27.8973 51.6533 30.1639 50.56 32.2439C49.4933 34.3239 47.9867 35.9773 46.04 37.2039C44.12 38.4306 41.96 39.0439 39.56 39.0439ZM39.68 38.3239C41.9733 38.3239 44.0133 37.7373 45.8 36.5639C47.5867 35.3906 48.96 33.8306 49.92 31.8839C50.9067 29.9106 51.4 27.7773 51.4 25.4839C51.4 22.8973 50.6267 20.9373 49.08 19.6039C47.56 18.2706 45.6267 17.6039 43.28 17.6039C40.9867 17.6039 38.9467 18.1906 37.16 19.3639C35.3733 20.5373 33.9867 22.1106 33 24.0839C32.0133 26.0306 31.52 28.1373 31.52 30.4039C31.52 32.9906 32.2933 34.9639 33.84 36.3239C35.3867 37.6573 37.3333 38.3239 39.68 38.3239Z" fill="white"/>
<path d="M64.8984 15.2039L63.6184 22.4439H73.0184L72.2584 26.7639H62.8584L61.5384 34.3239H72.1384L71.3384 38.7639H55.0984L60.0584 10.8039H76.2584L75.4984 15.2039H64.8984Z" fill="white"/>
<path d="M92.6275 16.2839C94.9208 16.2839 96.7208 16.9106 98.0275 18.1639C99.3608 19.3906 100.028 21.1506 100.028 23.4439C100.028 24.2973 99.9608 25.0706 99.8275 25.7639L97.5075 38.7639H91.9475L94.1075 26.5239C94.1875 26.0439 94.2275 25.5773 94.2275 25.1239C94.2275 23.7906 93.8675 22.7773 93.1475 22.0839C92.4542 21.3906 91.4542 21.0439 90.1475 21.0439C88.6542 21.0439 87.3742 21.4973 86.3075 22.4039C85.2675 23.2839 84.5742 24.5639 84.2275 26.2439L82.0275 38.7639H76.3875L80.3075 16.6039H85.9475L85.4675 19.3239C86.3742 18.3906 87.4542 17.6573 88.7075 17.1239C89.9608 16.5639 91.2675 16.2839 92.6275 16.2839Z" fill="white"/>
<path d="M116.513 16.2439C119.339 16.2439 121.579 17.0306 123.233 18.6039C124.886 20.1506 125.713 22.2439 125.713 24.8839C125.713 25.7373 125.646 26.4973 125.513 27.1639C125.353 27.9639 125.179 28.6573 124.993 29.2439H108.793C108.766 29.4306 108.753 29.6973 108.753 30.0439C108.753 31.4306 109.153 32.5239 109.953 33.3239C110.779 34.0973 111.859 34.4839 113.193 34.4839C114.313 34.4839 115.273 34.2439 116.073 33.7639C116.899 33.2573 117.566 32.6039 118.073 31.8039H124.113C123.126 33.9373 121.593 35.6973 119.513 37.0839C117.459 38.4439 115.126 39.1239 112.513 39.1239C109.686 39.1239 107.419 38.3239 105.713 36.7239C104.006 35.1239 103.153 32.9506 103.153 30.2039C103.153 29.4039 103.233 28.5639 103.393 27.6839C103.793 25.3906 104.606 23.3773 105.833 21.6439C107.086 19.9106 108.633 18.5773 110.473 17.6439C112.313 16.7106 114.326 16.2439 116.513 16.2439ZM119.953 25.8439C120.006 25.4173 120.033 25.1106 120.033 24.9239C120.033 23.6439 119.619 22.6439 118.793 21.9239C117.966 21.2039 116.886 20.8439 115.553 20.8439C114.139 20.8439 112.873 21.2973 111.753 22.2039C110.633 23.0839 109.846 24.2973 109.393 25.8439H119.953Z" fill="white"/>
<path d="M136.4 20.5239C137.36 19.1906 138.48 18.1506 139.76 17.4039C141.04 16.6573 142.427 16.2839 143.92 16.2839L142.88 22.1639H141.4C139.747 22.1639 138.414 22.5239 137.4 23.2439C136.414 23.9639 135.694 25.1906 135.24 26.9239L133.16 38.7639H127.52L131.44 16.6039H137.08L136.4 20.5239Z" fill="white"/>
<path d="M156.372 16.2439C158.026 16.2439 159.426 16.5773 160.572 17.2439C161.746 17.8839 162.572 18.7239 163.052 19.7639L163.612 16.6039H169.252L165.332 38.9239C164.959 40.9773 164.212 42.8039 163.092 44.4039C161.972 46.0306 160.506 47.3106 158.692 48.2439C156.879 49.2039 154.799 49.6839 152.452 49.6839C149.332 49.6839 146.892 48.9506 145.132 47.4839C143.399 46.0173 142.612 44.0173 142.772 41.4839H148.332C148.439 42.4973 148.919 43.2973 149.772 43.8839C150.652 44.4973 151.786 44.8039 153.172 44.8039C154.826 44.8039 156.226 44.3106 157.372 43.3239C158.546 42.3639 159.319 40.8973 159.692 38.9239L160.292 35.4839C159.386 36.5239 158.239 37.3906 156.852 38.0839C155.492 38.7773 153.999 39.1239 152.372 39.1239C150.746 39.1239 149.292 38.7639 148.012 38.0439C146.759 37.2973 145.772 36.2573 145.052 34.9239C144.359 33.5639 144.012 31.9906 144.012 30.2039C144.012 29.3773 144.092 28.5106 144.252 27.6039C144.652 25.3639 145.439 23.3773 146.612 21.6439C147.812 19.9106 149.266 18.5773 150.972 17.6439C152.679 16.7106 154.479 16.2439 156.372 16.2439ZM161.652 27.6839C161.759 26.9906 161.812 26.4839 161.812 26.1639C161.812 24.5906 161.346 23.3639 160.412 22.4839C159.506 21.6039 158.359 21.1639 156.972 21.1639C155.932 21.1639 154.919 21.4173 153.932 21.9239C152.972 22.4306 152.132 23.1773 151.412 24.1639C150.692 25.1239 150.212 26.2706 149.972 27.6039C149.892 28.1106 149.852 28.5906 149.852 29.0439C149.852 30.6439 150.306 31.9106 151.212 32.8439C152.119 33.7506 153.266 34.2039 154.652 34.2039C155.692 34.2039 156.706 33.9506 157.692 33.4439C158.679 32.9106 159.519 32.1506 160.212 31.1639C160.932 30.1773 161.412 29.0173 161.652 27.6839Z" fill="white"/>
<path d="M178.442 16.6039L181.402 32.0839L190.002 16.6039H195.962L176.482 49.2439H170.522L177.242 38.2039L172.162 16.6039H178.442Z" fill="white"/>
<path d="M259.337 26.4199C259.337 41.0112 247.508 52.8398 232.917 52.8398C218.325 52.8398 206.497 41.0112 206.497 26.4199C206.497 11.8286 218.325 0 232.917 0C247.508 0 259.337 11.8286 259.337 26.4199Z" fill="#5BC000"/>
<path d="M226.889 48.3428C226.889 43.2552 227.829 37.0282 232.621 35.6589C237.414 34.2896 242.767 31.4546 242.94 23.6093C243.112 15.7639 231.475 3.37274 231.475 3.37274C231.475 3.37274 240.726 17.4259 237.414 23.6093C234.101 29.7926 226.889 31.0466 224.596 33.3528C219.887 38.0885 223.782 44.1767 226.889 48.3428Z" fill="#005734"/>
<path d="M239.662 41.0351C244.159 39.3488 245.846 35.6589 246.97 31.479C245.032 35.6589 243.352 37.6624 237.414 37.6624C231.475 37.6624 228.982 43.8458 228.982 43.8458C231.914 41.1114 236.085 42.3764 239.662 41.0351Z" fill="#005432"/>
<path d="M228.982 43.8458C228.982 43.8458 231.475 37.6624 237.414 37.6624C243.352 37.6624 245.032 35.6589 246.97 31.479C248.094 27.2991 248.518 23.3852 245.612 17.7639C242.706 12.1427 231.475 3.37274 231.475 3.37274C231.475 3.37274 243.112 15.7639 242.94 23.6093C242.767 31.4546 237.414 34.2896 232.621 35.6589C227.829 37.0282 226.889 43.2552 226.889 48.3428L228.982 43.8458Z" fill="#008F2D"/>
<path d="M218.301 34.2896C218.301 38.7866 219.642 44.6134 226.889 48.3428C223.782 44.1767 219.887 38.0885 224.596 33.3528C226.889 31.0466 234.101 29.7926 237.414 23.6093C240.726 17.4259 231.475 3.37274 231.475 3.37274C233.161 7.86975 235.612 13.2639 234.603 15.7395C233.594 18.2151 231.574 19.1123 228.406 21.1739C222.541 24.9903 218.864 28.1063 218.301 34.2896Z" fill="#008F2D"/>
<path d="M228.406 21.1739C231.574 19.1123 233.594 18.2151 234.603 15.7395C235.612 13.2639 233.161 7.86975 231.475 3.37274C231.475 3.37274 235.165 15.1774 228.406 21.1739Z" fill="#005432"/>
</svg>
